<svg xmlns="http://www.w3.org/2000/svg" xmlns:xlink="http://www.w3.org/1999/xlink" width="37" height="37" viewBox="0 0 37 37">
  <defs>
    <path id="path-1" fill-rule="evenodd" d="M18.95336914 28.75195313C19.02160644 28.90429686 19.1673584 29 19.3265381 29h.01916504c.16662597-.00878906.31213378-.12109375.36865234-.28515625l6.2611084-18.13671875c.05444336-.15820313.01660156-.33496094-.0979004-.453125-.11401367-.11816406-.2836914-.15625-.43395995-.09765625L8.26831055 16.74023438c-.15612793.06054687-.26184082.21386718-.2680664.3876953-.00598145.1748047.08862304.3359375.23999022.40820313l7.23669434 3.48242188 3.47644043 7.73339844zm-2.99536133-8.45214844l-6.47253418-3.11425781 15.41174317-6.0234375-5.62072754 16.28125-3.11755371-6.93554688c-.04138184-.09179688-.11254883-.16601563-.20092774-.20800781z"/>
    <path id="path-2" fill-rule="evenodd" d="M15.42676231 21c-.1092648 0-.21831621-.04161352-.30175867-.12505396-.16667152-.16645407-.16667152-.43683524 0-.60350271L25.271479 10.1250006c.16667152-.16666748.43684584-.16666748.60351735 0 .16667152.16666747.16667152.43683523 0 .60350271L15.728521 20.87494604C15.64507852 20.95838648 15.53602712 21 15.4267623 21z"/>
  </defs>
  <g opacity=".5">
    <g>
      <g>
        <use fill="rgb(0,0,0)" xlink:href="#path-1"/>
        <use fill-opacity="0" stroke="rgb(30,30,30)" stroke-linecap="butt" stroke-linejoin="miter" stroke-width=".5" xlink:href="#path-1"/>
      </g>
      <g>
        <use fill="rgb(0,0,0)" xlink:href="#path-2"/>
        <use fill-opacity="0" stroke="rgb(30,30,30)" stroke-linecap="butt" stroke-linejoin="miter" stroke-width=".5" xlink:href="#path-2"/>
      </g>
    </g>
  </g>
</svg>
