<svg xmlns="http://www.w3.org/2000/svg" width="16" height="16" viewBox="0 0 16 16">
  <path fill="rgb(30,30,30)" fill-rule="evenodd" d="M15.73339844 14.44527435c.35546875.35572815.35534668.9322319-.00024414 1.28783036-.35559082.35559845-.9321289.35570526-1.2878418.0002327l-4.14782715-4.14482117c-1.1085205.84440994-2.46594238 1.29725647-3.859375 1.28759765-1.71069336.01067734-3.35449219-.66418075-4.56408691-1.8738594C.66430664 9.79257584-.01049805 8.14883423.00012207 6.43812179c-.01062012-1.71071243.66418457-3.35445022 1.87390137-4.56412887C3.08361816.66431046 4.72741699-.01054764 6.43811035.0001297c1.71081543-.01090622 3.3548584.66384506 4.56469727 1.87355041 1.20983886 1.20970536 1.8848877 2.85358048 1.8741455 4.56444169.00939942 1.39358139-.44372558 2.7509117-1.28845214 3.85933685l4.14489746 4.1478157zM3.1734619 3.173481C2.30859375 4.03842926 1.82788086 5.214962 1.83984375 6.4381256c-.01220703 1.22330856.46838379 2.4000702 1.33337402 3.26520538.86499024.8651352 2.04162598 1.34589005 3.26489258 1.33397675 1.22351074.01214981 2.40039063-.46850205 3.26550293-1.33366776.86523438-.86515808 1.3458252-2.04205322 1.33374024-3.26551437.01184082-1.2233162-.46887207-2.39998245-1.33398438-3.26495743-.8651123-.86497497-2.04187012-1.34550857-3.26525879-1.33336258-1.22314453-.0119133-2.3996582.46872711-3.26464844 1.33367539z"/>
</svg>
