<svg xmlns="http://www.w3.org/2000/svg" width="28" height="28" viewBox="0 0 28 28">
  <g>
    <g/>
    <path fill="rgb(30,30,30)" fill-rule="evenodd" d="M20.09847586 9.27694411c-.48040608.3061845-1.01124509.52886413-1.57861565.64801132-.45195673-.51935952-1.0978863-.84387435-1.8129995-.84387435-1.37074142 0-2.48317567 1.19758193-2.48317567 2.67453176 0 .20978051.021337.41311146.06401103.60897449-2.06451761-.11167927-3.89465138-1.1751782-5.12055975-2.7953762-.2140167.39647837-.33621959.85643402-.33621959 1.34626133 0 .9273792.43837862 1.7461342 1.10532191 2.22577798-.40669639-.01289912-.79043933-.13442246-1.12601235-.33334055v.03258727c0 1.29636207.8563901 2.37785188 1.99371754 2.6225958-.20819752.06279838-.42803341.0943673-.65465835.0943673-.1600276 0-.31617573-.01629364-.46747455-.0475231.31617574 1.06214112 1.2330207 1.83574918 2.32023849 1.85645567-.84992434.7175987-1.9216243 1.14530653-3.08513806 1.14530653-.2004386 0-.3986142-.01222023-.59258704-.03666067 1.09917944.75765387 2.40558654 1.20063699 3.80801019 1.20063699 4.56967688 0 7.0677238-4.07476574 7.0677238-7.60946548 0-.11643158-.00193973-.2325237-.00614248-.34657913.4852554-.37712968.90682304-.84794775 1.2385166-1.3842798-.44484438.21249612-.9239573.3564232-1.42634697.42091883.51305817-.33062495.90682304-.85473677 1.0923904-1.47932599"/>
  </g>
</svg>
