<?xml version="1.0" encoding="UTF-8"?>
<svg width="21px" height="21px" viewBox="0 0 21 21" version="1.1" xmlns="http://www.w3.org/2000/svg" xmlns:xlink="http://www.w3.org/1999/xlink">
    <title>Icons/Single/Login/Single </title>
    <g id="z-" stroke="none" stroke-width="1" fill="none" fill-rule="evenodd">
        <g id="Icons/User/Login/Static" transform="translate(-8.000000, -8.000000)" fill="#1E1E1E" fill-rule="nonzero" stroke="#1E1E1E" stroke-width="0.525">
            <g id="iconfinder_SignIn_1031506" transform="translate(9.000000, 9.000000)">
                <path d="M18.40625,0 L10.09375,0 C9.766,0 9.5,0.266 9.5,0.59375 C9.5,0.9215 9.766,1.1875 10.09375,1.1875 L17.8125,1.1875 L17.8125,17.8125 L10.09375,17.8125 C9.766,17.8125 9.5,18.0785 9.5,18.40625 C9.5,18.734 9.766,19 10.09375,19 L18.40625,19 C18.734,19 19,18.734 19,18.40625 L19,0.59375 C19,0.266 18.734,0 18.40625,0 Z" id="Path"></path>
                <path d="M9.73334375,13.240625 C9.5011875,13.4751563 9.5011875,13.8545625 9.73334375,14.0885 C9.9655,14.3230313 10.3413438,14.3230313 10.5729063,14.0885 L14.6691875,9.93284375 C14.8977813,9.701875 14.9001562,9.31534375 14.6691875,9.084375 L10.5723125,4.92871875 C10.3401563,4.6941875 9.9643125,4.69478125 9.73275,4.92871875 C9.50059375,5.16265625 9.50059375,5.54265625 9.73275,5.77659375 L12.82025,8.908625 L0.59375,8.908625 C0.266,8.908625 0,9.177 0,9.5083125 C0,9.839625 0.266,10.108 0.59375,10.108 L12.8208437,10.108 L9.73334375,13.240625 Z" id="Path"></path>
            </g>
        </g>
    </g>
</svg>