<svg xmlns="http://www.w3.org/2000/svg" width="28" height="28" viewBox="0 0 28 28">
  <g>
    <path fill="rgb(30,30,30)" fill-rule="evenodd" d="M8.3243103 10.68261719v6.63476562c0 1.30175781 1.05593872 2.35839844 2.35855103 2.35839844h6.63427734c1.30258179 0 2.35852051-1.05664063 2.35852051-2.35839844V10.6826172c0-1.30273438-1.05593872-2.35839844-2.3585205-2.35839844h-6.63427735c-1.3026123 0-2.35855103 1.05566406-2.35855103 2.35839844zm9.17727661.25390625c.19967652 0 .3927002-.13574219.43725586-.36914063l.00448609-.03613281c.00985718-.17871094-.07635498-.33398438-.22058106-.41699219-.1019287-.05957031-.2208252-.07519531-.33450317-.04394531-.11383057.03027344-.20889282.10351563-.26779175.20507813-.08319092.14453124-.08016968.32226562.01773071.47167968l.02316285.03027344c.09484863.109375.21871948.15917969.34024047.15917969zm-2.29919433 6.27929687c-2.79980469.96582031-5.38467407-1.61816406-4.41867066-4.41796875.3255005-.94433593 1.07015992-1.68847656 2.01379395-2.01464843 2.79986572-.96582032 5.3847351 1.61914062 4.41873169 4.4189453-.32550049.94335938-1.07015991 1.68847657-2.01385498 2.01367188z"/>
    <path fill="rgb(30,30,30)" fill-rule="evenodd" d="M14 12.1081081c-1.04324515 0-1.8918919.84864675-1.8918919 1.8918919 0 1.04324515.84864675 1.8918919 1.8918919 1.8918919 1.04324515 0 1.8918919-.84864675 1.8918919-1.8918919 0-1.04324515-.84864675-1.8918919-1.8918919-1.8918919z"/>
  </g>
</svg>
